<svg width="18" height="12" viewBox="0 0 18 12" fill="none" xmlns="http://www.w3.org/2000/svg">
<path d="M16.418 0H1.58203C0.707941 0 0 0.6754 0 1.5V10.5C0 11.3295 0.713145 12 1.58203 12H16.418C17.2847 12 18 11.3323 18 10.5V1.5C18 0.676867 17.2949 0 16.418 0ZM16.1964 1L10.1187 6.73223C9.81984 7.01557 9.42258 7.17157 9 7.17157C8.57742 7.17157 8.18016 7.01553 7.88034 6.7313L1.80359 1H16.1964ZM1.05469 10.2965V1.70417L5.61227 6.00267L1.05469 10.2965ZM1.80425 11L6.36005 6.7079L7.13556 7.43933C7.63358 7.91153 8.29571 8.17157 9 8.17157C9.70429 8.17157 10.3664 7.91153 10.8635 7.44027L11.64 6.7079L16.1957 11H1.80425ZM16.9453 10.2965L12.3877 6.00267L16.9453 1.70417V10.2965Z" fill="#F0E33F"/>
</svg>
