<svg width="22" height="23" viewBox="0 0 22 23" fill="none" xmlns="http://www.w3.org/2000/svg">
<path d="M21.1438 10.0266H12.2141C11.8203 10.0266 11.5016 10.3453 11.5016 10.7391V13.5937C11.5016 13.9875 11.8203 14.3063 12.2141 14.3063H17.2438C16.6953 15.7359 15.6641 16.9312 14.3563 17.6906L16.4984 21.4031C19.9344 19.4156 21.9688 15.9234 21.9688 12.0187C21.9688 11.4609 21.9266 11.0625 21.8469 10.6172C21.7813 10.275 21.4859 10.0266 21.1438 10.0266Z" fill="#167EE6"/>
<path d="M11.0234 18.5906C8.5625 18.5906 6.41563 17.2453 5.2625 15.2578L1.55 17.3953C3.43907 20.6719 6.97813 22.875 11.0234 22.875C13.0109 22.875 14.8813 22.3406 16.4984 21.4078V21.4031L14.3563 17.6906C13.3719 18.2625 12.2375 18.5906 11.0234 18.5906Z" fill="#12B347"/>
<path d="M16.4938 21.4078V21.4031L14.3516 17.6906C13.3719 18.2578 12.2375 18.5906 11.0234 18.5906V22.875C13.0109 22.875 14.8813 22.3406 16.4938 21.4078Z" fill="#0F993E"/>
<path d="M4.3625 11.9297C4.3625 10.7156 4.69531 9.58125 5.2625 8.60156L1.55 6.46406C0.6125 8.07187 0.078125 9.9375 0.078125 11.9297C0.078125 13.9219 0.6125 15.7875 1.55 17.3953L5.2625 15.2578C4.69063 14.2781 4.3625 13.1437 4.3625 11.9297Z" fill="#FFD500"/>
<path d="M11.0234 5.26875C12.6266 5.26875 14.1031 5.84063 15.2516 6.7875C15.5375 7.02188 15.95 7.00312 16.2078 6.74531L18.2281 4.725C18.5234 4.42969 18.5 3.94688 18.1859 3.675C16.2594 1.99688 13.7516 0.984375 11.0234 0.984375C6.97813 0.984375 3.43907 3.1875 1.55 6.46406L5.2625 8.60156C6.41563 6.61406 8.5625 5.26875 11.0234 5.26875Z" fill="#FF4B26"/>
<path d="M15.2516 6.7875C15.5375 7.02188 15.95 7.00312 16.2078 6.74531L18.2281 4.725C18.5234 4.42969 18.5 3.94688 18.1859 3.675C16.2594 1.99688 13.7516 0.984375 11.0234 0.984375V5.26875C12.6266 5.26875 14.1031 5.83594 15.2516 6.7875Z" fill="#D93F21"/>
</svg>
