<svg width="10" height="18" viewBox="0 0 10 18" fill="none" xmlns="http://www.w3.org/2000/svg">
<path d="M9.5 8.99996C9.5001 9.10742 9.48074 9.21384 9.44303 9.31311C9.40532 9.41238 9.35 9.50254 9.28025 9.57842L1.78029 17.7602C1.48723 18.0799 1.01267 18.0799 0.719796 17.7602C0.426922 17.4405 0.426735 16.9228 0.719796 16.6033L7.68951 8.99996L0.719796 1.39661C0.426736 1.07691 0.426736 0.5592 0.719797 0.2397C1.01286 -0.0797977 1.48742 -0.0800037 1.78029 0.2397L9.28025 8.42151C9.35 8.49739 9.40532 8.58755 9.44303 8.68682C9.48074 8.78609 9.5001 8.89251 9.5 8.99996Z" fill="#1E1E1E"/>
</svg>
