<svg width="10" height="18" viewBox="0 0 10 18" fill="none" xmlns="http://www.w3.org/2000/svg">
<path d="M0.500001 9.00004C0.499899 8.89258 0.519261 8.78616 0.556972 8.68689C0.594684 8.58762 0.650001 8.49746 0.71975 8.42158L8.21971 0.239778C8.51277 -0.079926 8.98733 -0.079926 9.2802 0.239778C9.57308 0.559482 9.57327 1.07719 9.2802 1.39669L2.31049 9.00004L9.2802 16.6034C9.57327 16.9231 9.57327 17.4408 9.28021 17.7603C8.98714 18.0798 8.51258 18.08 8.21971 17.7603L0.71975 9.57849C0.650001 9.50262 0.594684 9.41245 0.556972 9.31318C0.519261 9.21391 0.499899 9.10749 0.500001 9.00004Z" fill="#1E1E1E"/>
</svg>
