<svg width="520" height="875" viewBox="0 0 520 875" fill="none" xmlns="http://www.w3.org/2000/svg">
<g clip-path="url(#clip0_0_523)">
<path d="M725.037 531.045L678.921 435.342C677.996 433.419 676.35 431.95 674.343 431.259L651.228 423.316L673.26 412.405C675.173 411.459 676.64 409.789 677.339 407.76L712.048 306.746C712.746 304.716 712.617 302.496 711.69 300.573C710.764 298.65 709.115 297.182 707.107 296.492L607.177 262.155C605.169 261.465 602.96 261.619 601.056 262.562L579.024 273.472L587.053 250.106C587.749 248.077 587.618 245.857 586.691 243.936L540.575 148.232C539.648 146.312 538.001 144.845 535.995 144.156C533.988 143.467 531.788 143.611 529.876 144.556L434.676 191.702C432.763 192.648 431.296 194.318 430.597 196.347L422.569 219.713L411.896 197.564C410.971 195.641 409.324 194.173 407.318 193.481L307.388 159.144C305.38 158.454 303.177 158.599 301.264 159.546C299.352 160.494 297.885 162.166 297.188 164.196L285.092 199.398C284.395 201.427 284.523 203.648 285.45 205.571C286.377 207.494 288.025 208.962 290.033 209.652C292.041 210.341 294.243 210.197 296.156 209.25C298.069 208.302 299.535 206.63 300.233 204.6L309.699 177.051L398.929 207.711L415.132 241.354L384.142 331.543L294.912 300.883L278.706 267.25L289.715 235.211C290.412 233.181 290.283 230.961 289.357 229.038C288.43 227.115 286.782 225.647 284.774 224.957C282.766 224.267 280.563 224.412 278.651 225.359C276.738 226.306 275.271 227.979 274.574 230.008L262.478 265.21C261.78 267.241 261.918 269.467 262.841 271.381L273.513 293.53L250.398 285.587C248.379 284.893 246.181 285.051 244.277 285.994L149.077 333.139C147.166 334.087 145.702 335.759 145.005 337.786C144.308 339.814 144.436 342.033 145.361 343.955L191.476 439.658C192.398 441.572 194.036 443.048 196.055 443.741L219.17 451.684L197.138 462.595C195.225 463.54 193.758 465.211 193.059 467.24L158.349 568.254C156.898 572.478 159.111 577.072 163.29 578.508L263.22 612.845C265.229 613.535 267.437 613.381 269.341 612.438L291.373 601.528L283.344 624.894C282.647 626.924 282.784 629.15 283.707 631.064L329.822 726.768C330.278 727.722 330.917 728.574 331.702 729.276C332.488 729.978 333.404 730.515 334.398 730.857C335.393 731.198 336.446 731.338 337.497 731.267C338.548 731.196 339.576 730.916 340.522 730.444L435.721 683.298C437.634 682.352 439.101 680.682 439.8 678.653L447.829 655.287L458.501 677.436C459.424 679.35 461.071 680.829 463.08 681.519L563.01 715.856C565.018 716.546 567.22 716.401 569.133 715.454C571.046 714.506 572.512 712.834 573.21 710.804L584.78 677.133C585.477 675.103 585.348 672.883 584.422 670.96C583.495 669.037 581.847 667.569 579.839 666.879C577.831 666.189 575.628 666.334 573.715 667.281C571.803 668.228 570.336 669.901 569.639 671.93L560.698 697.949L471.468 667.289L455.265 633.646L486.255 543.457L575.485 574.117L591.692 607.75L580.157 641.32C579.459 643.349 579.588 645.57 580.515 647.493C581.441 649.416 583.09 650.884 585.098 651.574C587.106 652.264 589.308 652.119 591.221 651.172C593.134 650.224 594.6 648.552 595.298 646.522L607.919 609.79C608.615 607.76 608.484 605.541 607.557 603.619L596.884 581.47L620 589.413C622.018 590.107 624.217 589.949 626.121 589.006L721.32 541.861C723.231 540.913 724.696 539.241 725.393 537.213C726.089 535.186 725.961 532.967 725.037 531.045ZM571.592 295.104L605.048 278.535L694.278 309.196L663.288 399.385L629.832 415.953L540.602 385.293L571.592 295.104ZM535.343 400.598L609.432 426.056L538.849 461.011L524.685 431.616L535.343 400.598ZM444.655 204.702L529.651 162.618L570.825 248.067L558.624 283.575L473.625 325.67L432.45 240.22L444.655 204.702ZM551.195 305.196L525.461 380.09L494.775 369.546L480.611 340.152L551.195 305.196ZM425.021 261.842L459.212 332.799L429.972 347.279L399.287 336.735L425.021 261.842ZM378.887 346.838L368.229 377.857L338.989 392.337L304.797 321.38L378.887 346.838ZM204.446 429.501L163.268 344.062L248.268 301.967L283.395 314.037L324.569 399.487L239.57 441.581L204.446 429.501ZM298.813 579.876L265.357 596.444L176.127 565.784L207.113 475.605L240.569 459.037L329.799 489.697L298.813 579.876ZM335.062 474.382L260.972 448.924L331.556 413.969L345.72 443.363L335.062 474.382ZM425.75 670.278L340.746 712.382L299.572 626.933L311.773 591.425L396.773 549.33L437.947 634.78L425.75 670.278ZM319.209 569.783L344.943 494.89L375.629 505.433L389.793 534.828L319.209 569.783ZM445.383 613.138L411.192 542.181L440.432 527.7L471.118 538.244L445.383 613.138ZM492.201 484.112C490.288 485.058 488.821 486.729 488.122 488.757L476.377 522.939L442.562 511.32C440.553 510.63 438.345 510.784 436.441 511.726L404.205 527.699L388.592 495.297C387.667 493.374 386.02 491.905 384.014 491.214L350.199 479.594L361.944 445.413C362.64 443.383 362.509 441.164 361.582 439.242L345.968 406.84L378.2 390.877C380.113 389.932 381.58 388.261 382.279 386.232L394.024 352.051L427.839 363.67C429.848 364.36 432.056 364.206 433.96 363.263L466.192 347.301L481.805 379.703C482.728 381.617 484.375 383.096 486.384 383.786L520.198 395.405L508.453 429.587C507.756 431.618 507.893 433.844 508.816 435.758L524.429 468.16L492.201 484.112ZM491.518 528.142L502.176 497.123L531.416 482.642L565.607 553.599L491.518 528.142ZM622.133 573.022L587.006 560.952L545.828 475.513L630.828 433.419L665.955 445.489L707.129 530.938L622.133 573.022Z" fill="#F0E33F" fill-opacity="0.02"/>
</g>
<defs>
<clipPath id="clip0_0_523">
<rect width="683.084" height="690.499" fill="white" transform="translate(224.386) rotate(18.9632)"/>
</clipPath>
</defs>
</svg>
