<svg width="24" height="22" viewBox="0 0 24 22" fill="none" xmlns="http://www.w3.org/2000/svg">
<path d="M17.0625 0C16.1133 0.00115654 15.1744 0.20604 14.3037 0.602014C13.433 0.997987 12.649 1.57665 12 2.30232C11.0489 1.23882 9.8146 0.49943 8.45735 0.180147C7.1001 -0.139136 5.68258 -0.0235679 4.38881 0.511848C3.09504 1.04726 1.98478 1.9778 1.20215 3.18265C0.419527 4.38751 0.000684862 5.81103 0 7.26843C0 14.5054 11.1412 21.6088 11.625 21.8878C11.7416 21.9612 11.8752 22 12.0112 22C12.1473 22 12.2809 21.9612 12.3975 21.8878C12.8588 21.6088 24 14.5054 24 7.26843C23.998 5.34136 23.2665 3.49381 21.9659 2.13117C20.6653 0.768526 18.9018 0.00207995 17.0625 0ZM12 20.2887C10.0612 18.9922 1.5 12.9339 1.5 7.26843C1.50096 6.05831 1.86969 4.87995 2.55276 3.90412C3.23582 2.9283 4.19772 2.20571 5.29906 1.84107C6.4004 1.47644 7.58395 1.48871 8.67819 1.8761C9.77243 2.26349 10.7205 3.00588 11.385 3.99567C11.4542 4.09863 11.5461 4.18264 11.6528 4.24063C11.7595 4.29862 11.8779 4.32889 11.9981 4.32889C12.1183 4.32889 12.2368 4.29862 12.3435 4.24063C12.4502 4.18264 12.542 4.09863 12.6112 3.99567C13.2752 3.00417 14.2235 2.26018 15.3184 1.8717C16.4134 1.48322 17.598 1.47047 18.7004 1.8353C19.8027 2.20012 20.7654 2.92355 21.4486 3.90054C22.1319 4.87753 22.5002 6.05725 22.5 7.26843C22.5 12.9299 13.9388 18.9883 12 20.2887Z" fill="#FEFEFE"/>
</svg>
