<svg width="32" height="32" viewBox="0 0 32 32" fill="none" xmlns="http://www.w3.org/2000/svg">
<path d="M27.9999 32.0001H20.0001V20.0001H23.8798L24.9 15.9999H20.0001V11.1999C20.0001 9.87449 21.0744 8.79989 22.4001 8.79989H24.8001V4.8H22.4001C18.8677 4.80555 16.0054 7.66754 15.9999 11.1999V15.9999H12V20.0001H15.9999V32.0001H3.9999C1.79092 32.0001 0 30.2092 0 27.9999V3.9999C0 1.79092 1.79092 0 3.9999 0H27.9999C30.2092 0 32.0001 1.79092 32.0001 3.9999V27.9999C32.0001 30.2092 30.2092 32.0001 27.9999 32.0001ZM21.6 30.3999H27.9999C29.3256 30.3999 30.3999 29.3256 30.3999 27.9999V3.9999C30.3999 2.6745 29.3256 1.5999 27.9999 1.5999H3.9999C2.6745 1.5999 1.5999 2.6745 1.5999 3.9999V27.9999C1.5999 29.3256 2.6745 30.3999 3.9999 30.3999H14.4V21.6H10.4001V14.4H14.4V11.1999C14.4055 6.78397 17.9839 3.20535 22.4001 3.2001H26.4V10.4001H22.4001C21.9583 10.4001 21.6 10.7581 21.6 11.1999V14.4H26.9599L25.12 21.6H21.6V30.3999Z" fill="#FFF78D"/>
</svg>
