<svg width="32" height="32" viewBox="0 0 32 32" fill="none" xmlns="http://www.w3.org/2000/svg">
<path d="M24.9131 8.01147C23.2084 7.67655 23.2141 5.25094 24.9131 4.8824C26.4626 4.57065 27.4627 6.49213 26.3513 7.5734C26.1661 7.75905 25.938 7.89615 25.6871 7.97257C25.4362 8.04898 25.1704 8.06234 24.9131 8.01147Z" fill="#FFF78D"/>
<path d="M24.9098 32H7.09025C5.21055 31.9975 3.40854 31.2498 2.0794 29.9206C0.750247 28.5915 0.00245312 26.7894 0 24.9098V7.09025C0.00245312 5.21055 0.750247 3.40854 2.0794 2.0794C3.40854 0.750247 5.21055 0.00245312 7.09025 0H24.9098C26.7894 0.00245312 28.5915 0.750247 29.9206 2.0794C31.2498 3.40854 31.9975 5.21055 32 7.09025V24.9098C31.9975 26.7894 31.2498 28.5915 29.9206 29.9206C28.5915 31.2498 26.7894 31.9975 24.9098 32ZM7.09025 1.85427C5.70205 1.8558 4.37115 2.40794 3.38954 3.38954C2.40794 4.37115 1.8558 5.70205 1.85427 7.09025V24.9098C1.8558 26.2979 2.40794 27.6289 3.38954 28.6105C4.37115 29.5921 5.70205 30.1442 7.09025 30.1457H24.9098C26.2979 30.1442 27.6289 29.5921 28.6105 28.6105C29.5921 27.6289 30.1442 26.2979 30.1457 24.9098V7.09025C30.1442 5.70205 29.5921 4.37115 28.6105 3.38954C27.6289 2.40794 26.2979 1.8558 24.9098 1.85427H7.09025Z" fill="#FFF78D"/>
<path d="M15.9998 24.5575C14.3073 24.5575 12.6528 24.0556 11.2456 23.1153C9.8383 22.175 8.74148 20.8385 8.09378 19.2749C7.44609 17.7112 7.27662 15.9906 7.60682 14.3306C7.93701 12.6706 8.75202 11.1458 9.9488 9.94905C11.1456 8.75227 12.6704 7.93725 14.3304 7.60706C15.9903 7.27687 17.7109 7.44633 19.2746 8.09403C20.8383 8.74172 22.1748 9.83855 23.1151 11.2458C24.0554 12.6531 24.5573 14.3076 24.5573 16.0001C24.5545 18.2688 23.652 20.4438 22.0478 22.048C20.4436 23.6523 18.2686 24.5547 15.9998 24.5575ZM15.9998 9.2969C14.6741 9.2969 13.3781 9.69003 12.2757 10.4266C11.1734 11.1631 10.3142 12.21 9.8069 13.4349C9.29955 14.6597 9.16681 16.0075 9.42545 17.3078C9.6841 18.6081 10.3225 19.8025 11.26 20.7399C12.1974 21.6774 13.3918 22.3158 14.6921 22.5744C15.9924 22.8331 17.3402 22.7003 18.565 22.193C19.7899 21.6856 20.8368 20.8265 21.5733 19.7242C22.3099 18.6218 22.703 17.3258 22.703 16.0001C22.7009 14.2229 21.9939 12.5192 20.7373 11.2626C19.4807 10.006 17.777 9.29904 15.9998 9.2969Z" fill="#FFF78D"/>
</svg>
