<svg width="32" height="32" viewBox="0 0 32 32" fill="none" xmlns="http://www.w3.org/2000/svg">
<rect x="0.75" y="0.75" width="30.5" height="30.5" rx="3.25" stroke="#FFF78D" stroke-width="1.5"/>
<path d="M26.9028 9.70678C26.839 9.60303 26.7476 9.51907 26.6389 9.46432C26.5301 9.40956 26.4082 9.38617 26.2869 9.39676L25.1899 9.49233L26.2385 7.37856C26.2994 7.25578 26.3204 7.11701 26.2984 6.98172C26.2764 6.84643 26.2126 6.72142 26.1159 6.62425C26.0193 6.52709 25.8946 6.46264 25.7594 6.43995C25.6242 6.41727 25.4853 6.4375 25.3622 6.49779L22.587 7.85694C20.8724 6.95176 18.7303 7.22044 17.2563 8.56317C16.0261 9.68379 15.3795 11.4071 15.5001 13.1257C12.2848 12.8035 9.56311 10.9631 7.95376 7.98937C7.90122 7.8923 7.82504 7.81005 7.73227 7.75025C7.6395 7.69044 7.53314 7.655 7.42304 7.64722C7.31294 7.63943 7.20266 7.65955 7.1024 7.70571C7.00214 7.75187 6.91514 7.82258 6.84947 7.91129C5.8513 9.25974 5.78126 11.1086 6.56377 12.6296C6.34806 12.5752 6.11852 12.5014 5.86398 12.4164C5.75674 12.3805 5.64205 12.373 5.53104 12.3945C5.42003 12.4161 5.31648 12.4659 5.23042 12.5393C5.14437 12.6127 5.07874 12.707 5.0399 12.8132C5.00107 12.9194 4.99034 13.0338 5.00877 13.1454C5.3184 15.0226 6.41307 16.4653 8.14231 17.3193C7.91717 17.3977 7.68717 17.4614 7.45378 17.5101C7.33978 17.5338 7.23415 17.5875 7.14775 17.6656C7.06134 17.7436 6.99728 17.8433 6.96213 17.9543C6.92699 18.0653 6.92203 18.1837 6.94776 18.2973C6.9735 18.4108 7.029 18.5155 7.10857 18.6005C8.35384 19.9316 10.1527 20.5868 11.4304 20.901C9.97763 22.0387 8.4094 22.2291 6.1306 22.1509C5.86681 22.1429 5.62378 22.2915 5.51288 22.5306C5.45865 22.6476 5.4401 22.778 5.45954 22.9054C5.47898 23.0329 5.53555 23.1518 5.62219 23.2474C6.57214 24.2945 10.0331 25.4752 13.6714 25.5637C13.8153 25.5672 13.962 25.569 14.1119 25.569C16.6664 25.569 20.0425 25.0214 22.4659 22.5981C24.3001 20.7639 25.4473 18.6524 25.8757 16.3224C26.2217 14.4405 26.003 12.9335 25.8979 12.2092C25.8902 12.156 25.882 12.0995 25.8753 12.05L26.9014 10.3962C26.9656 10.2927 26.9997 10.1734 26.9999 10.0517C27.0002 9.92992 26.9665 9.8105 26.9028 9.70678ZM24.5994 12.3976C24.7941 13.7392 25.3864 17.8219 21.5381 21.6703C19.3011 23.9072 16.0429 24.3089 13.7032 24.252C11.7069 24.2035 9.92117 23.8216 8.62695 23.3862C9.15242 23.3217 9.62069 23.2223 10.0627 23.0849C11.2813 22.7062 12.3107 22.0246 13.3023 20.9401C13.3834 20.8515 13.4386 20.7422 13.4618 20.6244C13.4851 20.5065 13.4755 20.3845 13.4342 20.2717C13.3928 20.1589 13.3213 20.0596 13.2274 19.9846C13.1334 19.9097 13.0207 19.862 12.9016 19.8467C12.276 19.7665 10.3963 19.4501 8.91609 18.4291C9.34264 18.2546 9.75402 18.0363 10.1468 17.7758C10.2523 17.7058 10.3353 17.6068 10.3858 17.4907C10.4363 17.3746 10.4521 17.2464 10.4313 17.1215C10.4106 16.9966 10.3541 16.8804 10.2688 16.7869C10.1835 16.6933 10.073 16.6265 9.95052 16.5944C8.73902 16.2767 7.27688 15.566 6.60265 13.9795C7.0332 14.055 7.50134 14.0732 8.00064 13.9613C8.11431 13.9358 8.21915 13.8805 8.30438 13.8011C8.38961 13.7217 8.45217 13.6211 8.48561 13.5095C8.51906 13.3979 8.5222 13.2794 8.4947 13.1662C8.46719 13.053 8.41005 12.9492 8.32914 12.8654C7.49022 11.9965 7.1765 10.7443 7.44566 9.67279C8.32712 10.961 9.44383 12.0452 10.7233 12.8468C12.36 13.8723 14.2703 14.439 16.2478 14.4855C16.3473 14.4877 16.446 14.4673 16.5365 14.4258C16.6269 14.3843 16.7068 14.3229 16.7701 14.246C16.8333 14.1691 16.8782 14.0788 16.9013 13.982C16.9244 13.8852 16.9252 13.7843 16.9036 13.6872C16.5634 12.1577 17.0487 10.5272 18.1399 9.53319C19.2717 8.50215 20.9444 8.34575 22.2076 9.15309C22.3024 9.21371 22.4113 9.2489 22.5237 9.25526C22.6362 9.26163 22.7483 9.23896 22.8494 9.18944L24.2047 8.52566L23.4953 9.9557C23.4436 10.06 23.4205 10.1763 23.4286 10.2925C23.4366 10.4087 23.4755 10.5207 23.5411 10.6169C23.6067 10.7132 23.6968 10.7902 23.802 10.8401C23.9073 10.89 24.024 10.911 24.14 10.9008L25.0957 10.8176L24.6555 11.5272C24.5077 11.7654 24.5383 11.9767 24.5994 12.3976Z" fill="#FFF78D"/>
</svg>
