<svg width="304" height="434" viewBox="0 0 304 434" fill="none" xmlns="http://www.w3.org/2000/svg">
<path d="M257.187 241.361C274.307 235.354 289.576 225.063 301.551 211.458C302.201 210.722 302.529 209.756 302.465 208.771C302.4 207.786 301.948 206.863 301.207 206.206C287.545 194.056 271.047 185.567 253.27 181.541C247.084 164.361 236.669 148.99 222.997 136.861C209.324 124.732 192.838 116.24 175.077 112.177C168.926 94.9775 158.512 79.5936 144.82 67.4779C144.079 66.8209 143.111 66.4831 142.128 66.5389C141.145 66.5946 140.228 67.0394 139.578 67.7753C127.568 81.3493 119.239 97.7966 115.377 115.564C98.2773 121.605 83.0218 131.898 71.0328 145.483C59.0438 159.068 50.7116 175.502 46.8128 193.255C29.6935 199.261 14.4248 209.552 2.4491 223.157C1.79966 223.893 1.47103 224.86 1.53552 225.845C1.60002 226.829 2.05235 227.752 2.79301 228.409C16.4552 240.559 32.9536 249.048 50.7299 253.074C56.916 270.254 67.3309 285.625 81.0036 297.754C94.6764 309.883 111.162 318.375 128.924 322.439C135.075 339.638 145.488 355.022 159.181 367.137C159.921 367.794 160.89 368.132 161.873 368.076C162.856 368.02 163.773 367.576 164.422 366.84C176.432 353.266 184.762 336.818 188.623 319.051C205.723 313.01 220.978 302.717 232.968 289.132C244.957 275.547 253.289 259.113 257.187 241.361ZM133.283 260.067C136.883 246.323 143.382 233.535 152.344 222.56C162.683 232.419 170.819 244.359 176.207 257.579C161.85 255.538 147.258 256.384 133.283 260.067ZM179.025 265.669C183.85 281.103 184.919 297.438 182.144 313.304C166.775 317.998 150.473 318.923 134.605 316.001C129.78 300.567 128.71 284.232 131.486 268.366C146.855 263.672 163.157 262.747 179.025 265.669ZM109.134 198.179C122.891 201.907 135.719 208.531 146.759 217.605C137.006 227.871 125.156 235.913 112.003 241.19C113.913 226.83 112.937 212.208 109.134 198.179ZM103.95 243.94C88.5809 248.634 72.2789 249.559 56.4109 246.637C51.5862 231.203 50.5166 214.868 53.2917 199.002C68.661 194.308 84.963 193.383 100.831 196.305C105.656 211.739 106.725 228.074 103.95 243.94ZM170.717 174.548C167.117 188.292 160.619 201.08 151.656 212.056C141.317 202.196 133.181 190.256 127.794 177.036C142.15 179.077 156.743 178.231 170.717 174.548ZM124.975 168.946C120.151 153.512 119.081 137.177 121.856 121.311C137.226 116.617 153.528 115.692 169.396 118.614C174.22 134.048 175.29 150.383 172.515 166.249C157.145 170.943 140.843 171.868 124.975 168.946ZM194.866 236.436C181.109 232.708 168.281 226.084 157.242 217.01C166.995 206.744 178.844 198.702 191.997 193.425C190.088 207.785 191.063 222.407 194.866 236.436ZM200.05 190.675C215.419 185.981 231.721 185.057 247.589 187.978C252.414 203.413 253.484 219.747 250.709 235.613C235.339 240.307 219.037 241.232 203.169 238.31C198.345 222.876 197.275 206.541 200.05 190.675ZM170.464 196.387C174.278 188.638 177.142 180.449 178.994 171.996C187.136 169.125 194.895 165.278 202.101 160.538C198.286 168.286 195.422 176.475 193.571 184.928C185.429 187.799 177.67 191.647 170.464 196.387ZM130.944 198.629C123.172 194.739 114.969 191.797 106.512 189.867C103.572 181.687 99.6604 173.882 94.8628 166.622C102.634 170.512 110.837 173.454 119.294 175.384C122.235 183.564 126.146 191.369 130.944 198.629ZM133.537 238.229C129.722 245.977 126.858 254.166 125.007 262.619C116.864 265.49 109.105 269.338 101.899 274.077C105.714 266.329 108.578 258.14 110.429 249.687C118.572 246.816 126.33 242.968 133.537 238.229ZM173.057 235.986C180.828 239.876 189.031 242.818 197.488 244.748C200.429 252.928 204.34 260.733 209.138 267.993C201.366 264.103 193.163 261.161 184.706 259.232C181.766 251.051 177.854 243.246 173.057 235.986ZM229.85 281.42C219.511 271.56 211.375 259.62 205.988 246.4C220.344 248.441 234.937 247.595 248.911 243.912C245.311 257.656 238.813 270.445 229.85 281.42ZM293.517 209.278C283.764 219.545 271.914 227.586 258.762 232.863C260.671 218.504 259.696 203.881 255.893 189.853C269.649 193.581 282.477 200.204 293.517 209.278ZM244.722 179.943C230.386 177.891 215.81 178.718 201.848 182.376C205.447 168.632 211.946 155.844 220.909 144.869C231.237 154.749 239.356 166.708 244.722 179.943ZM215.323 139.914C205.57 150.181 193.721 158.222 180.568 163.499C182.477 149.139 181.502 134.517 177.699 120.488C191.455 124.217 204.284 130.84 215.323 139.914ZM142.715 75.5045C153.054 85.3643 161.19 97.3039 166.577 110.524C152.221 108.483 137.628 109.329 123.654 113.012C127.254 99.2679 133.752 86.4797 142.715 75.5045ZM113.803 124.061C111.894 138.421 112.869 153.043 116.672 167.072C102.916 163.344 90.0874 156.72 79.0477 147.646C88.8217 137.391 100.691 129.366 113.859 124.111L113.803 124.061ZM74.1502 153.195C84.4894 163.055 92.6252 174.995 98.0128 188.215C83.6566 186.174 69.0637 187.02 55.0894 190.703C58.689 176.959 65.1878 164.171 74.1502 153.195ZM10.4831 225.337C20.2361 215.07 32.0858 207.029 45.2386 201.752C43.3292 216.112 44.3046 230.734 48.1075 244.763C34.351 241.034 21.5228 234.411 10.4831 225.337ZM59.2291 254.727C73.5853 256.768 88.1782 255.922 102.153 252.239C98.5529 265.983 92.0541 278.771 83.0917 289.746C72.7636 279.866 64.6443 267.907 59.2781 254.672L59.2291 254.727ZM88.677 294.701C98.43 284.435 110.28 276.393 123.432 271.116C121.523 285.476 122.498 300.098 126.301 314.127C112.545 310.399 99.7167 303.775 88.677 294.701ZM161.286 359.111C150.946 349.251 142.811 337.311 137.423 324.091C151.779 326.132 166.372 325.286 180.346 321.603C176.747 335.347 170.248 348.135 161.286 359.111ZM190.197 310.554C192.107 296.194 191.131 281.572 187.328 267.543C201.085 271.272 213.913 277.895 224.953 286.969C215.179 297.224 203.31 305.249 190.141 310.505L190.197 310.554Z" fill="#F0E33F" fill-opacity="0.02"/>
</svg>
