<svg width="376" height="589" viewBox="0 0 376 589" fill="none" xmlns="http://www.w3.org/2000/svg">
<path d="M581.037 388.045L534.921 292.342C533.996 290.419 532.35 288.95 530.343 288.259L507.228 280.316L529.26 269.405C531.173 268.459 532.64 266.789 533.339 264.76L568.048 163.746C568.746 161.716 568.617 159.496 567.69 157.573C566.764 155.65 565.115 154.182 563.107 153.492L463.177 119.155C461.169 118.465 458.96 118.619 457.056 119.562L435.024 130.472L443.053 107.106C443.749 105.077 443.618 102.857 442.691 100.936L396.575 5.23241C395.648 3.31158 394.001 1.84548 391.995 1.15614C389.988 0.466798 387.788 0.610589 385.876 1.55594L290.676 48.7018C288.763 49.6476 287.296 51.3183 286.597 53.3466L278.569 76.7126L267.896 54.5642C266.971 52.6413 265.324 51.1726 263.318 50.4812L163.388 16.1443C161.38 15.4543 159.177 15.599 157.264 16.5463C155.352 17.4936 153.885 19.166 153.188 21.1956L141.092 56.3977C140.395 58.4273 140.523 60.6478 141.45 62.5708C142.377 64.4938 144.025 65.9617 146.033 66.6516C148.041 67.3415 150.243 67.1969 152.156 66.2496C154.069 65.3022 155.535 63.6298 156.233 61.6002L165.699 34.0508L254.929 64.7112L271.132 98.3542L240.142 188.543L150.912 157.883L134.706 124.25L145.715 92.2107C146.412 90.1811 146.283 87.9606 145.357 86.0376C144.43 84.1146 142.782 82.6467 140.774 81.9568C138.766 81.2669 136.563 81.4115 134.651 82.3588C132.738 83.3061 131.271 84.9785 130.574 87.0081L118.478 122.21C117.78 124.241 117.918 126.467 118.841 128.381L129.513 150.53L106.398 142.587C104.379 141.893 102.181 142.051 100.277 142.994L5.0771 190.139C3.16637 191.087 1.70172 192.759 1.0049 194.786C0.308072 196.814 0.43606 199.033 1.36071 200.955L47.4761 296.658C48.3984 298.572 50.0357 300.048 52.0545 300.741L75.1696 308.684L53.1377 319.595C51.2249 320.54 49.7577 322.211 49.0588 324.24L14.3492 425.254C12.8977 429.478 15.1112 434.072 19.2901 435.508L119.22 469.845C121.229 470.535 123.437 470.381 125.341 469.438L147.373 458.528L139.344 481.894C138.647 483.924 138.784 486.15 139.707 488.064L185.822 583.768C186.278 584.722 186.917 585.574 187.702 586.276C188.488 586.978 189.404 587.515 190.398 587.857C191.393 588.198 192.446 588.338 193.497 588.267C194.548 588.196 195.576 587.916 196.522 587.444L291.721 540.298C293.634 539.352 295.101 537.682 295.8 535.653L303.829 512.287L314.501 534.436C315.424 536.35 317.071 537.829 319.08 538.519L419.01 572.856C421.018 573.546 423.22 573.401 425.133 572.454C427.046 571.506 428.512 569.834 429.21 567.804L440.78 534.133C441.477 532.103 441.348 529.883 440.422 527.96C439.495 526.037 437.847 524.569 435.839 523.879C433.831 523.189 431.628 523.334 429.715 524.281C427.803 525.228 426.336 526.901 425.639 528.93L416.698 554.949L327.468 524.289L311.265 490.646L342.255 400.457L431.485 431.117L447.692 464.75L436.157 498.32C435.459 500.349 435.588 502.57 436.515 504.493C437.441 506.416 439.09 507.884 441.098 508.574C443.106 509.264 445.308 509.119 447.221 508.172C449.134 507.224 450.6 505.552 451.298 503.522L463.919 466.79C464.615 464.76 464.484 462.541 463.557 460.619L452.884 438.47L476 446.413C478.018 447.107 480.217 446.949 482.121 446.006L577.32 398.861C579.231 397.913 580.696 396.241 581.393 394.213C582.089 392.186 581.961 389.967 581.037 388.045ZM427.592 152.104L461.048 135.535L550.278 166.196L519.288 256.385L485.832 272.953L396.602 242.293L427.592 152.104ZM391.343 257.598L465.432 283.056L394.849 318.011L380.685 288.616L391.343 257.598ZM300.655 61.702L385.651 19.6177L426.825 105.067L414.624 140.575L329.625 182.67L288.45 97.2204L300.655 61.702ZM407.195 162.196L381.461 237.09L350.775 226.546L336.611 197.152L407.195 162.196ZM281.021 118.842L315.212 189.799L285.972 204.279L255.287 193.735L281.021 118.842ZM234.887 203.838L224.229 234.857L194.989 249.337L160.797 178.38L234.887 203.838ZM60.4462 286.501L19.2683 201.062L104.268 158.967L139.395 171.037L180.569 256.487L95.5696 298.581L60.4462 286.501ZM154.813 436.876L121.357 453.444L32.1266 422.784L63.1129 332.605L96.5687 316.037L185.799 346.697L154.813 436.876ZM191.062 331.382L116.972 305.924L187.556 270.969L201.72 300.363L191.062 331.382ZM281.75 527.278L196.746 569.382L155.572 483.933L167.773 448.425L252.773 406.33L293.947 491.78L281.75 527.278ZM175.209 426.783L200.943 351.89L231.629 362.433L245.793 391.828L175.209 426.783ZM301.383 470.138L267.192 399.181L296.432 384.7L327.118 395.244L301.383 470.138ZM348.201 341.112C346.288 342.058 344.821 343.729 344.122 345.757L332.377 379.939L298.562 368.32C296.553 367.63 294.345 367.784 292.441 368.726L260.205 384.699L244.592 352.297C243.667 350.374 242.02 348.905 240.014 348.214L206.199 336.594L217.944 302.413C218.64 300.383 218.509 298.164 217.582 296.242L201.968 263.84L234.2 247.877C236.113 246.932 237.58 245.261 238.279 243.232L250.024 209.051L283.839 220.67C285.848 221.36 288.056 221.206 289.96 220.263L322.192 204.301L337.805 236.703C338.728 238.617 340.375 240.096 342.384 240.786L376.198 252.405L364.453 286.587C363.756 288.618 363.893 290.844 364.816 292.758L380.429 325.16L348.201 341.112ZM347.518 385.142L358.176 354.123L387.416 339.642L421.607 410.599L347.518 385.142ZM478.133 430.022L443.006 417.952L401.828 332.513L486.828 290.419L521.955 302.489L563.129 387.938L478.133 430.022Z" fill="#F0E33F" fill-opacity="0.02"/>
</svg>
