<svg width="302" height="303" viewBox="0 0 302 303" fill="none" xmlns="http://www.w3.org/2000/svg">
<path d="M256.187 175.361C273.307 169.354 288.575 159.063 300.551 145.458C301.201 144.722 301.529 143.756 301.465 142.771C301.4 141.786 300.948 140.863 300.207 140.206C286.545 128.056 270.047 119.567 252.27 115.541C246.084 98.3606 235.669 82.9899 221.997 70.8611C208.324 58.7322 191.838 50.2402 174.076 46.1765C167.926 28.9775 157.512 13.5936 143.82 1.4779C143.079 0.820883 142.111 0.483105 141.128 0.538875C140.145 0.594645 139.228 1.03939 138.578 1.77528C126.568 15.3493 118.238 31.7966 114.377 49.5637C97.2772 55.6054 82.0217 65.8983 70.0327 79.4831C58.0437 93.0679 49.7115 109.502 45.8127 127.255C28.6934 133.261 13.4247 143.552 1.44901 157.157C0.799566 157.893 0.470942 158.86 0.535432 159.845C0.599931 160.829 1.05226 161.752 1.79291 162.409C15.4551 174.559 31.9535 183.048 49.7298 187.074C55.9159 204.254 66.3308 219.625 80.0035 231.754C93.6763 243.883 110.162 252.375 127.924 256.439C134.074 273.638 144.488 289.022 158.181 301.137C158.921 301.794 159.89 302.132 160.873 302.076C161.855 302.02 162.773 301.576 163.422 300.84C175.432 287.266 183.762 270.818 187.623 253.051C204.723 247.01 219.978 236.717 231.967 223.132C243.956 209.547 252.289 193.113 256.187 175.361ZM132.283 194.067C135.883 180.323 142.382 167.535 151.344 156.56C161.683 166.419 169.819 178.359 175.207 191.579C160.85 189.538 146.257 190.384 132.283 194.067ZM178.025 199.669C182.849 215.103 183.919 231.438 181.144 247.304C165.775 251.998 149.473 252.923 133.605 250.001C128.78 234.567 127.71 218.232 130.485 202.366C145.855 197.672 162.157 196.747 178.025 199.669ZM108.134 132.179C121.891 135.907 134.719 142.531 145.759 151.605C136.006 161.871 124.156 169.913 111.003 175.19C112.913 160.83 111.937 146.208 108.134 132.179ZM102.95 177.94C87.5808 182.634 71.2788 183.559 55.4108 180.637C50.5861 165.203 49.5165 148.868 52.2916 133.002C67.6609 128.308 83.9629 127.383 99.8309 130.305C104.656 145.739 105.725 162.074 102.95 177.94ZM169.717 108.548C166.117 122.292 159.619 135.08 150.656 146.056C140.317 136.196 132.181 124.256 126.794 111.036C141.15 113.077 155.743 112.231 169.717 108.548ZM123.975 102.946C119.151 87.5118 118.081 71.1768 120.856 55.311C136.225 50.6173 152.527 49.6924 168.395 52.6138C173.22 68.0484 174.29 84.3833 171.515 100.249C156.145 104.943 139.843 105.868 123.975 102.946ZM193.866 170.436C180.109 166.708 167.281 160.084 156.241 151.01C165.994 140.744 177.844 132.702 190.997 127.425C189.088 141.785 190.063 156.407 193.866 170.436ZM199.05 124.675C214.419 119.981 230.721 119.057 246.589 121.978C251.414 137.413 252.484 153.747 249.708 169.613C234.339 174.307 218.037 175.232 202.169 172.31C197.345 156.876 196.275 140.541 199.05 124.675ZM169.464 130.387C173.278 122.638 176.142 114.449 177.994 105.996C186.136 103.125 193.895 99.2776 201.101 94.5378C197.286 102.286 194.422 110.475 192.571 118.928C184.428 121.799 176.67 125.647 169.464 130.387ZM129.944 132.629C122.172 128.739 113.969 125.797 105.512 123.867C102.572 115.687 98.6603 107.882 93.8627 100.622C101.634 104.512 109.837 107.454 118.294 109.384C121.235 117.564 125.146 125.369 129.944 132.629ZM132.537 172.229C128.722 179.977 125.858 188.166 124.007 196.619C115.864 199.49 108.105 203.338 100.899 208.077C104.714 200.329 107.578 192.14 109.429 183.687C117.572 180.816 125.33 176.968 132.537 172.229ZM172.057 169.986C179.828 173.876 188.031 176.818 196.488 178.748C199.429 186.928 203.34 194.733 208.137 201.993C200.366 198.103 192.163 195.161 183.706 193.232C180.765 185.051 176.854 177.246 172.057 169.986ZM228.85 215.42C218.511 205.56 210.375 193.62 204.987 180.4C219.344 182.441 233.936 181.595 247.911 177.912C244.311 191.656 237.812 204.445 228.85 215.42ZM292.517 143.278C282.764 153.545 270.914 161.586 257.762 166.863C259.671 152.504 258.696 137.881 254.893 123.853C268.649 127.581 281.477 134.204 292.517 143.278ZM243.722 113.943C229.386 111.891 214.81 112.718 200.848 116.376C204.447 102.632 210.946 89.8438 219.909 78.8687C230.237 88.7493 238.356 100.708 243.722 113.943ZM214.323 73.9141C204.57 84.1806 192.721 92.2218 179.568 97.4991C181.477 83.1395 180.502 68.517 176.699 54.4885C190.455 58.2166 203.284 64.8398 214.323 73.9141ZM141.715 9.50454C152.054 19.3643 160.19 31.3039 165.577 44.5238C151.221 42.483 136.628 43.3289 122.654 47.0119C126.253 33.2679 132.752 20.4797 141.715 9.50454ZM112.803 58.0611C110.894 72.4207 111.869 87.0432 115.672 101.072C101.915 97.3435 89.0873 90.7203 78.0476 81.646C87.8216 71.3909 99.6906 63.3664 112.859 58.1106L112.803 58.0611ZM73.1501 87.1954C83.4893 97.0551 91.6251 108.995 97.0127 122.215C82.6565 120.174 68.0636 121.02 54.0893 124.703C57.6889 110.959 64.1877 98.1705 73.1501 87.1954ZM9.48302 159.337C19.236 149.07 31.0857 141.029 44.2385 135.752C42.3291 150.112 43.3045 164.734 47.1075 178.763C33.3509 175.034 20.5228 168.411 9.48302 159.337ZM58.229 188.727C72.5852 190.768 87.1781 189.922 101.152 186.239C97.5528 199.983 91.054 212.771 82.0916 223.746C71.7635 213.866 63.6442 201.907 58.278 188.672L58.229 188.727ZM87.6769 228.701C97.4299 218.435 109.28 210.393 122.432 205.116C120.523 219.476 121.498 234.098 125.301 248.127C111.545 244.399 98.7166 237.775 87.6769 228.701ZM160.285 293.111C149.946 283.251 141.81 271.311 136.423 258.091C150.779 260.132 165.372 259.286 179.346 255.603C175.747 269.347 169.248 282.135 160.285 293.111ZM189.197 244.554C191.106 230.194 190.131 215.572 186.328 201.543C200.085 205.272 212.913 211.895 223.953 220.969C214.179 231.224 202.31 239.249 189.141 244.505L189.197 244.554Z" fill="#F0E33F" fill-opacity="0.02"/>
</svg>
