<svg width="19" height="20" viewBox="0 0 19 20" fill="none" xmlns="http://www.w3.org/2000/svg">
<path d="M18.7112 18.2168L14.0273 13.2662C15.2321 11.8136 15.8924 9.97473 15.8915 8.07499C15.8915 3.62251 12.327 0 7.94574 0C3.56453 0 0 3.62251 0 8.07499C0 12.5275 3.56453 16.15 7.94574 16.15C9.59051 16.15 11.1579 15.6458 12.498 14.6888L17.2174 19.677C17.4146 19.8852 17.68 20 17.9643 20C18.2334 20 18.4887 19.8957 18.6825 19.7061C18.8803 19.5123 18.9944 19.2467 18.9998 18.9675C19.0052 18.6883 18.9014 18.4184 18.7112 18.2168ZM7.94574 2.10652C11.1841 2.10652 13.8187 4.78391 13.8187 8.07499C13.8187 11.3661 11.1841 14.0435 7.94574 14.0435C4.70733 14.0435 2.0728 11.3661 2.0728 8.07499C2.0728 4.78391 4.70733 2.10652 7.94574 2.10652Z" fill="white"/>
</svg>
