<svg width="16" height="19" viewBox="0 0 16 19" fill="none" xmlns="http://www.w3.org/2000/svg">
<path d="M8 0.558823C5.05882 0.558823 2.70588 2.79412 2.70588 5.58823V7.82353C1.70588 7.82353 0.941177 8.55 0.941177 9.5V16.7647C0.941177 17.7147 1.70588 18.4412 2.70588 18.4412H13.2941C14.2941 18.4412 15.0588 17.7147 15.0588 16.7647V9.5C15.0588 8.55 14.2941 7.82353 13.2941 7.82353V5.58823C13.2941 2.79412 10.9412 0.558823 8 0.558823ZM13.8824 9.5V16.7647C13.8824 17.1 13.6471 17.3235 13.2941 17.3235H2.70588C2.35294 17.3235 2.11765 17.1 2.11765 16.7647V9.5C2.11765 9.16471 2.35294 8.94118 2.70588 8.94118H13.2941C13.6471 8.94118 13.8824 9.16471 13.8824 9.5ZM3.88235 7.82353V5.58823C3.88235 3.40882 5.70588 1.67647 8 1.67647C10.2941 1.67647 12.1176 3.40882 12.1176 5.58823V7.82353H3.88235Z" fill="#F0E33F"/>
<path d="M8 10.6176C7 10.6176 6.23529 11.3441 6.23529 12.2941C6.23529 13.0206 6.70588 13.6353 7.41176 13.8588V15.0882C7.41176 15.4235 7.64706 15.6471 8 15.6471C8.35294 15.6471 8.58823 15.4235 8.58823 15.0882V13.8588C9.29411 13.6353 9.7647 13.0206 9.7647 12.2941C9.7647 11.3441 9 10.6176 8 10.6176ZM8 12.8529C7.64706 12.8529 7.41176 12.6294 7.41176 12.2941C7.41176 11.9588 7.64706 11.7353 8 11.7353C8.35294 11.7353 8.58823 11.9588 8.58823 12.2941C8.58823 12.6294 8.35294 12.8529 8 12.8529Z" fill="#F0E33F"/>
</svg>
