<svg width="32" height="30" viewBox="0 0 32 30" fill="none" xmlns="http://www.w3.org/2000/svg">
<mask id="path-1-inside-1_271_260" fill="white">
<path fill-rule="evenodd" clip-rule="evenodd" d="M28.8622 23.9232C30.834 21.4296 32 18.3425 32 15C32 6.71567 24.8365 0 16 0C7.16338 0 0 6.71567 0 15C0 23.2842 7.16338 30 16 30C20.6361 30 24.8116 28.1515 27.734 25.1976C28.1346 24.7925 28.5113 24.367 28.8622 23.9232ZM27.9751 22.5C29.5067 20.3548 30.3999 17.7752 30.3999 15C30.3999 7.54416 23.9529 1.49997 15.9998 1.49997C8.04711 1.49997 1.59997 7.54416 1.59997 15C1.59997 17.7753 2.49315 20.3548 4.0249 22.5C5.95732 19.7935 8.90602 17.7786 12.3592 16.9353C10.6919 15.8521 9.59997 14.0457 9.59997 11.9999C9.59997 8.68623 12.4654 5.99987 16 5.99987C19.5346 5.99987 22.4 8.68623 22.4 11.9999C22.4 14.0455 21.3079 15.8521 19.6408 16.9351C23.0938 17.7786 26.0427 19.7934 27.9751 22.5ZM26.9445 23.7738C24.699 20.3121 20.6376 17.9999 16.0002 17.9999C11.3625 17.9999 7.30099 20.3121 5.05553 23.7739C7.69659 26.6667 11.6198 28.5 16 28.5C20.3802 28.5 24.3034 26.6665 26.9445 23.7738ZM16 16.5C18.651 16.5 20.8001 14.4854 20.8001 11.9999C20.8001 9.51457 18.6512 7.49984 16 7.49984C13.3488 7.49984 11.1999 9.51473 11.1999 12.0001C11.1999 14.4854 13.349 16.5 16 16.5Z"/>
</mask>
<path fill-rule="evenodd" clip-rule="evenodd" d="M28.8622 23.9232C30.834 21.4296 32 18.3425 32 15C32 6.71567 24.8365 0 16 0C7.16338 0 0 6.71567 0 15C0 23.2842 7.16338 30 16 30C20.6361 30 24.8116 28.1515 27.734 25.1976C28.1346 24.7925 28.5113 24.367 28.8622 23.9232ZM27.9751 22.5C29.5067 20.3548 30.3999 17.7752 30.3999 15C30.3999 7.54416 23.9529 1.49997 15.9998 1.49997C8.04711 1.49997 1.59997 7.54416 1.59997 15C1.59997 17.7753 2.49315 20.3548 4.0249 22.5C5.95732 19.7935 8.90602 17.7786 12.3592 16.9353C10.6919 15.8521 9.59997 14.0457 9.59997 11.9999C9.59997 8.68623 12.4654 5.99987 16 5.99987C19.5346 5.99987 22.4 8.68623 22.4 11.9999C22.4 14.0455 21.3079 15.8521 19.6408 16.9351C23.0938 17.7786 26.0427 19.7934 27.9751 22.5ZM26.9445 23.7738C24.699 20.3121 20.6376 17.9999 16.0002 17.9999C11.3625 17.9999 7.30099 20.3121 5.05553 23.7739C7.69659 26.6667 11.6198 28.5 16 28.5C20.3802 28.5 24.3034 26.6665 26.9445 23.7738ZM16 16.5C18.651 16.5 20.8001 14.4854 20.8001 11.9999C20.8001 9.51457 18.6512 7.49984 16 7.49984C13.3488 7.49984 11.1999 9.51473 11.1999 12.0001C11.1999 14.4854 13.349 16.5 16 16.5Z" fill="white"/>
<path d="M28.8622 23.9232L27.2934 22.6827L27.2933 22.6828L28.8622 23.9232ZM27.734 25.1976L29.1558 26.6042L29.156 26.6039L27.734 25.1976ZM27.9751 22.5L26.3474 23.6621L27.9751 25.942L29.6028 23.6621L27.9751 22.5ZM4.0249 22.5L2.39726 23.6622L4.02496 25.9418L5.65259 23.6622L4.0249 22.5ZM12.3592 16.9353L12.8337 18.8782L17.3305 17.7799L13.4488 15.2581L12.3592 16.9353ZM19.6408 16.9351L18.5513 15.2579L14.6696 17.7795L19.1662 18.878L19.6408 16.9351ZM26.9445 23.7738L28.4215 25.1223L29.4631 23.9814L28.6224 22.6854L26.9445 23.7738ZM5.05553 23.7739L3.37759 22.6856L2.53695 23.9816L3.57851 25.1224L5.05553 23.7739ZM30.431 25.1637C32.6651 22.3384 34 18.8193 34 15H30C30 17.8656 29.0029 20.5209 27.2934 22.6827L30.431 25.1637ZM34 15C34 5.49146 25.8175 -2 16 -2V2C23.8554 2 30 7.93988 30 15H34ZM16 -2C6.18236 -2 -2 5.49147 -2 15H2C2 7.93987 8.1444 2 16 2V-2ZM-2 15C-2 24.5084 6.18234 32 16 32V28C8.14441 28 2 22.06 2 15H-2ZM16 32C21.172 32 25.8589 29.9366 29.1558 26.6042L26.3122 23.791C23.7643 26.3663 20.1003 28 16 28V32ZM29.156 26.6039C29.6083 26.1466 30.034 25.6658 30.4311 25.1636L27.2933 22.6828C26.9886 23.0682 26.661 23.4383 26.3119 23.7913L29.156 26.6039ZM29.6028 23.6621C31.3634 21.1963 32.3999 18.2139 32.3999 15H28.3999C28.3999 17.3364 27.65 19.5134 26.3474 21.3379L29.6028 23.6621ZM32.3999 15C32.3999 6.31998 24.9339 -0.500032 15.9998 -0.500032V3.49997C22.9719 3.49997 28.3999 8.76835 28.3999 15H32.3999ZM15.9998 -0.500032C7.06607 -0.500032 -0.400034 6.31998 -0.400034 15H3.59997C3.59997 8.76835 9.02814 3.49997 15.9998 3.49997V-0.500032ZM-0.400034 15C-0.400034 18.2141 0.636469 21.1963 2.39726 23.6622L5.65255 21.3378C4.34983 19.5134 3.59997 17.3365 3.59997 15H-0.400034ZM5.65259 23.6622C7.30062 21.354 9.83602 19.6103 12.8337 18.8782L11.8847 14.9924C7.97602 15.947 4.61402 18.2331 2.39722 21.3378L5.65259 23.6622ZM13.4488 15.2581C12.293 14.5073 11.6 13.3041 11.6 11.9999H7.59997C7.59997 14.7872 9.09072 17.1969 11.2696 18.6124L13.4488 15.2581ZM11.6 11.9999C11.6 9.91043 13.4464 7.99987 16 7.99987V3.99987C11.4844 3.99987 7.59997 7.46204 7.59997 11.9999H11.6ZM16 7.99987C18.5536 7.99987 20.4 9.91043 20.4 11.9999H24.4C24.4 7.46204 20.5156 3.99987 16 3.99987V7.99987ZM20.4 11.9999C20.4 13.3039 19.7068 14.5072 18.5513 15.2579L20.7303 18.6123C22.9091 17.1969 24.4 14.7871 24.4 11.9999H20.4ZM19.1662 18.878C22.1639 19.6103 24.6994 21.3539 26.3474 23.6621L29.6028 21.3379C27.386 18.2329 24.0238 15.947 20.1154 14.9922L19.1662 18.878ZM28.6224 22.6854C26.0025 18.6465 21.3048 15.9999 16.0002 15.9999V19.9999C19.9705 19.9999 23.3955 21.9777 25.2666 24.8622L28.6224 22.6854ZM16.0002 15.9999C10.6954 15.9999 5.99748 18.6465 3.37759 22.6856L6.73346 24.8623C8.60449 21.9777 12.0297 19.9999 16.0002 19.9999V15.9999ZM3.57851 25.1224C6.59836 28.4301 11.0576 30.5 16 30.5V26.5C12.1821 26.5 8.79481 24.9033 6.53254 22.4254L3.57851 25.1224ZM16 30.5C20.9424 30.5 25.4017 28.4299 28.4215 25.1223L25.4675 22.4253C23.2052 24.9032 19.8179 26.5 16 26.5V30.5ZM16 18.5C19.632 18.5 22.8001 15.7096 22.8001 11.9999H18.8001C18.8001 13.2612 17.67 14.5 16 14.5V18.5ZM22.8001 11.9999C22.8001 8.29042 19.6323 5.49984 16 5.49984V9.49984C17.6701 9.49984 18.8001 10.7387 18.8001 11.9999H22.8001ZM16 5.49984C12.3677 5.49984 9.19993 8.29066 9.19993 12.0001H13.1999C13.1999 10.7388 14.33 9.49984 16 9.49984V5.49984ZM9.19993 12.0001C9.19993 15.7097 12.3681 18.5 16 18.5V14.5C14.3299 14.5 13.1999 13.2611 13.1999 12.0001H9.19993Z" fill="white" mask="url(#path-1-inside-1_271_260)"/>
</svg>
