<svg width="32" height="30" viewBox="0 0 32 30" fill="none" xmlns="http://www.w3.org/2000/svg">
<path d="M22.75 0C21.4844 0.0015771 20.2326 0.280964 19.0716 0.820928C17.9107 1.36089 16.8653 2.14998 16 3.13953C14.7319 1.6893 13.0861 0.681041 11.2765 0.245655C9.4668 -0.18973 7.57677 -0.032138 5.85175 0.697974C4.12673 1.42809 2.64637 2.697 1.60287 4.33998C0.55937 5.98296 0.00091315 7.92413 0 9.91149C0 19.7801 14.855 29.4666 15.5 29.847C15.6555 29.9471 15.8336 30 16.015 30C16.1964 30 16.3745 29.9471 16.53 29.847C17.145 29.4666 32 19.7801 32 9.91149C31.9974 7.28367 31.022 4.76429 29.2878 2.90614C27.5537 1.04799 25.2024 0.00283629 22.75 0ZM16 27.6664C13.415 25.8985 2 17.6371 2 9.91149C2.00128 8.26133 2.49293 6.65448 3.40368 5.32381C4.31442 3.99314 5.59696 3.00778 7.06541 2.51055C8.53387 2.01333 10.1119 2.03005 11.5709 2.55831C13.0299 3.08658 14.294 4.09892 15.18 5.44864C15.2723 5.58904 15.3948 5.7036 15.537 5.78268C15.6793 5.86176 15.8372 5.90304 15.9975 5.90304C16.1578 5.90304 16.3157 5.86176 16.458 5.78268C16.6002 5.7036 16.7227 5.58904 16.815 5.44864C17.7003 4.0966 18.9646 3.08207 20.4246 2.55232C21.8845 2.02257 23.464 2.00518 24.9338 2.50268C26.4036 3.00017 27.6872 3.98665 28.5982 5.31892C29.5092 6.65118 30.0002 8.25988 30 9.91149C30 17.6317 18.585 25.8931 16 27.6664Z" fill="white"/>
</svg>
