<svg width="30" height="32" viewBox="0 0 30 32" fill="none" xmlns="http://www.w3.org/2000/svg">
<path d="M11.8409 16.4283C9.87208 16.7519 8.20706 17.2218 6.96757 17.7612C6.52932 17.9522 6.12688 18.5223 6.08822 18.9992C6.03798 19.6335 6.03798 20.2707 6.08822 20.905C6.12663 21.3816 6.52932 21.952 6.96757 22.1427C8.20706 22.6829 9.87131 23.1523 11.8409 23.4761C12.3124 23.5534 12.6614 23.2184 12.6284 22.742C12.5646 21.8136 12.5324 20.8833 12.5319 19.9527C12.5319 19.0244 12.5651 18.0882 12.6284 17.1634C12.6614 16.6863 12.3127 16.3515 11.8409 16.4283ZM13.5615 30.9276C14.0078 31.1004 14.2257 30.8547 14.0644 30.4045C13.5846 29.0656 13.2148 27.4849 12.9585 25.7895C12.8877 25.3168 12.4562 24.8848 11.9829 24.8137C10.2878 24.5573 8.70706 24.187 7.36793 23.7073C6.91801 23.5464 6.67177 23.7646 6.84458 24.2104C8.03892 27.2856 10.4875 29.7345 13.5615 30.9276ZM15.631 9.09934C15.0908 10.3393 14.6212 12.0028 14.2979 13.9725C14.22 14.4444 14.5542 14.7932 15.0311 14.7602C15.9567 14.6964 16.8926 14.6637 17.821 14.6637C18.7496 14.6637 19.6847 14.6964 20.61 14.7602C21.0869 14.7932 21.4214 14.4444 21.3438 13.9725C21.0205 12.0039 20.5503 10.3393 20.0112 9.09934C19.8202 8.66135 19.2501 8.25891 18.7732 8.21999C18.1389 8.16976 17.5017 8.16976 16.8674 8.21999C16.3915 8.25917 15.8217 8.66161 15.631 9.09934ZM13.5615 8.97713C12.0379 9.57077 10.6541 10.4744 9.49794 11.6307C8.34175 12.787 7.43831 14.1709 6.84484 15.6946C6.67255 16.1403 6.91801 16.3583 7.36819 16.1974C8.70732 15.7171 10.288 15.3479 11.9829 15.0916C12.4559 15.0202 12.8877 14.5882 12.9587 14.1154C13.2151 12.42 13.5848 10.8393 14.0646 9.50048C14.2263 9.0503 14.0078 8.80458 13.5615 8.97713ZM22.6819 14.1152C22.7527 14.5877 23.1847 15.0197 23.6578 15.0913C25.3526 15.3474 26.9336 15.7169 28.2724 16.1964C28.7226 16.3578 28.9691 16.1393 28.7955 15.6935C28.2021 14.1698 27.2986 12.7859 26.1423 11.6297C24.986 10.4734 23.6021 9.56997 22.0784 8.97661C21.6329 8.80406 21.4149 9.05004 21.5755 9.49996C22.0558 10.8391 22.4255 12.42 22.6819 14.1152ZM29.5527 19C29.5145 18.5231 29.1111 17.9527 28.6731 17.762C27.4336 17.2221 25.7686 16.7529 23.7997 16.4296C23.3285 16.3518 22.9795 16.6863 23.0122 17.1634C23.0758 18.0884 23.1085 19.0249 23.1085 19.9527C23.1085 20.8811 23.0758 21.8173 23.0122 22.7428C22.9795 23.2197 23.3285 23.5544 23.7997 23.4763C25.7686 23.153 27.4336 22.6829 28.6731 22.1434C29.1118 21.9527 29.514 21.3814 29.5527 20.9055C29.5785 20.5883 29.5911 20.2702 29.5906 19.952C29.5902 19.6343 29.5776 19.3167 29.5527 19ZM21.8103 19.9522C21.8103 18.9322 21.7724 17.9483 21.7011 17.0072C21.6655 16.5308 21.2416 16.1066 20.7654 16.0713C19.7854 15.9982 18.803 15.9617 17.8202 15.9621C16.8007 15.9621 15.8166 16.0002 14.8757 16.0713C14.3991 16.1071 13.9748 16.5308 13.939 17.0072C13.8659 17.9872 13.8295 18.9695 13.8298 19.9522C13.8298 20.9719 13.8682 21.9561 13.939 22.8972C13.9754 23.3733 14.3991 23.7989 14.8757 23.8336C15.8163 23.904 16.8005 23.9429 17.8202 23.9429C18.8399 23.9429 19.8243 23.9042 20.7654 23.8336C21.2418 23.7971 21.6661 23.3733 21.7011 22.8972C21.7727 21.9561 21.8103 20.9722 21.8103 19.9522ZM28.2727 23.7078C26.9338 24.1886 25.3531 24.5578 23.6578 24.8142C23.185 24.8848 22.7532 25.317 22.6819 25.79C22.4255 27.4846 22.0558 29.0661 21.5763 30.405C21.4149 30.8547 21.6331 31.1017 22.0786 30.9281C23.6024 30.3348 24.9864 29.4315 26.1427 28.2752C27.2991 27.119 28.2026 25.7352 28.7961 24.2114C28.9689 23.7649 28.7229 23.5469 28.2727 23.7078ZM20.6095 25.144C19.6845 25.2075 18.7483 25.2407 17.8192 25.2407C16.891 25.2407 15.9564 25.2075 15.0304 25.144C14.5537 25.1113 14.219 25.4603 14.2968 25.9317C14.6207 27.9011 15.0903 29.5653 15.6295 30.8051C15.8202 31.2433 16.3908 31.6458 16.8672 31.6844C17.1814 31.7104 17.4992 31.7226 17.8204 31.7226C18.1406 31.7226 18.4587 31.7088 18.7727 31.6844C19.2499 31.6463 19.8197 31.2436 20.0106 30.8051C20.5509 29.5653 21.0202 27.9011 21.3438 25.9317C21.4206 25.46 21.0861 25.1113 20.6095 25.144ZM8.74468 5.7654C8.83732 5.83623 8.91516 5.80873 8.95823 5.77837C8.92709 5.81807 8.87312 5.89643 8.79113 6.03914C8.79113 6.03914 8.49974 6.47713 8.59653 6.62373L8.59834 6.62632C8.69642 6.775 9.21199 6.679 9.21199 6.679C9.37494 6.65953 9.46809 6.64085 9.51842 6.6284C9.4725 6.65616 9.41671 6.71662 9.44551 6.82871L9.70784 7.70857C9.71199 7.72181 9.71744 7.73348 9.72263 7.7449L10.4136 7.15123L10.4702 6.4037C10.4743 6.34635 10.4863 6.27552 10.4863 6.27552C10.4863 6.27552 10.624 6.18159 10.6671 6.16213L13.1051 4.66395L14.3793 8.35569C14.4141 8.45429 14.506 8.47972 14.5856 8.41174L15.2553 7.83831C15.335 7.76981 15.3851 7.63099 15.3677 7.52643L14.705 3.59986L17.0389 1.96649C17.4689 1.66421 17.8116 1.20053 17.8038 0.928346C17.7983 0.821404 17.766 0.717564 17.7099 0.626323L17.7086 0.623987C17.6437 0.534989 17.5618 0.461559 17.4673 0.418746C17.2218 0.305098 16.6591 0.435612 16.2117 0.711429L13.7901 2.21013L10.4437 0.0487409C10.3547 -0.00782371 10.2081 -0.0169052 10.1134 0.0295401L9.32253 0.417968C9.22808 0.464413 9.21484 0.558601 9.29191 0.629696L12.1801 3.25917L9.84043 4.90655C9.80618 4.93873 9.66503 5.02876 9.66503 5.02876C9.66503 5.02876 9.59471 5.01086 9.54022 4.99192L8.83109 4.74853L8.01324 5.14942C8.0218 5.15876 8.02984 5.16836 8.04152 5.17666L8.74468 5.7654ZM1.04333 17.8749C1.08303 17.5129 1.15802 17.1645 1.23716 16.7981C1.2669 16.6616 1.2957 16.525 1.32356 16.3881C1.35392 16.2096 1.40711 16.0428 1.46368 15.8661C1.49196 15.7776 1.51998 15.6894 1.54567 15.6006L1.78724 14.829C1.86067 14.6569 1.93072 14.4847 2.00052 14.3137C2.13571 13.9823 2.26311 13.6694 2.40763 13.3731L2.7657 12.6912C2.79839 12.631 2.83264 12.5651 2.86664 12.4992C2.94603 12.3464 3.02076 12.2018 3.10483 12.0817C3.20991 11.9229 3.30358 11.7755 3.39596 11.63C3.56513 11.3635 3.72522 11.1115 3.8944 10.8822L4.69409 9.85336C4.87105 9.65512 5.05735 9.45507 5.23638 9.26254L5.49248 8.98647C5.69305 8.75554 5.90997 8.56068 6.11962 8.3723L6.89881 7.67095C7.12594 7.49207 7.35525 7.31597 7.58667 7.14267L7.76025 7.01138L8.08407 7.45663C8.02465 7.49814 7.96056 7.54251 7.89077 7.59052C7.69045 7.72881 7.44629 7.89747 7.17229 8.09596L7.14375 8.11828L6.41152 8.72959C6.21147 8.89384 5.98495 9.08014 5.76285 9.31755L4.98988 10.0871L4.9603 10.1193L4.16606 11.0576C3.97691 11.2913 3.80851 11.5334 3.64583 11.7677C3.55319 11.9011 3.45901 12.0365 3.36067 12.1715C3.24546 12.3201 3.15153 12.4849 3.06098 12.6437C3.02932 12.699 2.99767 12.7548 2.96472 12.8098L2.59549 13.4452C2.43228 13.747 2.29372 14.049 2.1601 14.3409C2.0834 14.5099 2.00486 14.678 1.9245 14.8453L1.90322 14.8962L1.63934 15.6326C1.61132 15.7158 1.58459 15.788 1.55812 15.8596C1.49196 16.0389 1.41671 16.2423 1.37157 16.4623C1.34432 16.5731 1.31059 16.7021 1.27686 16.8318C1.18942 17.1671 1.09964 17.5116 1.04333 17.8749Z" fill="#F0E33F"/>
<path d="M7.86792 6.27713L7.52724 6.53608C7.30513 6.70733 6.97898 6.94579 6.56408 7.27402L5.88038 7.88922C5.63284 8.1134 5.35754 8.3503 5.11079 8.63468C4.85443 8.91309 4.57731 9.20474 4.29527 9.52051L3.47664 10.5742C3.20108 10.9476 2.9551 11.3672 2.67981 11.7839C2.53606 11.9889 2.42968 12.2219 2.30669 12.4492C2.18629 12.6778 2.0646 12.91 1.94135 13.1456C1.70861 13.623 1.51893 14.1378 1.29968 14.6492C1.21639 14.9157 1.13232 15.185 1.04696 15.4569C0.968078 15.7302 0.863252 15.9985 0.814731 16.2857C0.700564 16.8542 0.550589 17.4248 0.509074 18.0218C0.480532 18.3192 0.434606 18.6152 0.420854 18.9157L0.412032 19.8241C0.414108 19.9761 0.402691 20.1279 0.415924 20.2802L0.458996 20.7369C0.49143 21.0415 0.509853 21.3477 0.554741 21.651L0.7413 22.5553C0.776588 22.7047 0.794232 22.8589 0.844051 23.0047L0.98676 23.4445C1.08692 23.7354 1.16735 24.0335 1.28411 24.3171L1.66761 25.1541C1.78256 25.4383 1.94654 25.6964 2.10638 25.9554C2.26958 26.2182 2.40996 26.4673 2.59107 26.7369L3.11961 27.4351C3.31473 27.6622 3.51945 27.8851 3.71743 28.1074C4.13284 28.5291 4.55526 28.9263 5.01063 29.2717C5.91099 29.9725 6.87545 30.5156 7.829 30.925C8.78826 31.3272 9.73819 31.5779 10.6212 31.7551C11.0675 31.8184 11.4909 31.9056 11.9009 31.9279C12.1051 31.9453 12.3041 31.9627 12.4971 31.9787C12.691 31.9837 12.8791 31.9873 13.0615 31.9915C13.2055 31.9927 13.3453 31.9992 13.4813 31.9992C13.5179 31.9992 13.5545 31.9987 13.5905 31.9977L14.082 31.9751L14.534 31.9546L14.9442 31.9092C15.2034 31.8781 15.4362 31.8604 15.6357 31.8275L16.143 31.7387L16.5646 31.6648L16.1401 31.7208L15.631 31.788C15.4305 31.8132 15.1974 31.8205 14.9385 31.8404L14.5293 31.8679C14.3853 31.8687 14.2353 31.869 14.0789 31.8695L13.5908 31.8713C13.4222 31.8695 13.2475 31.8526 13.0672 31.8436L12.5101 31.8075L11.924 31.732C11.5208 31.6936 11.1074 31.589 10.6725 31.5091C9.81317 31.2981 8.89542 31.0132 7.98131 30.5841C7.07238 30.1471 6.16528 29.5838 5.33211 28.877C4.91151 28.5293 4.52231 28.1292 4.14841 27.7172L3.62039 27.0727C3.45484 26.834 3.28878 26.5937 3.12168 26.3532C2.56356 25.3908 2.01738 24.3415 1.75998 23.2198L1.64322 22.8049C1.60248 22.6676 1.59288 22.5218 1.56564 22.3809L1.4276 21.5335C1.39802 21.2491 1.39387 20.9627 1.37545 20.679L1.35235 20.2543C1.34561 20.1131 1.36377 19.9712 1.36792 19.8301L1.41099 18.9886C1.43564 18.7107 1.49143 18.4362 1.52879 18.1622C1.58821 17.6118 1.7535 17.0867 1.87986 16.5662C1.93383 16.3028 2.0441 16.0571 2.12765 15.8075C2.21691 15.5597 2.30461 15.3137 2.39179 15.0706C2.61727 14.6048 2.81058 14.1373 3.04436 13.705L3.40996 13.0755C3.53269 12.8708 3.63777 12.6601 3.77996 12.4761C4.05292 12.1022 4.29319 11.725 4.56252 11.3916C4.82706 11.0787 5.0918 10.7661 5.35676 10.4536C5.6331 10.1778 5.89517 9.91673 6.14192 9.67127C6.38193 9.41517 6.63284 9.22108 6.85858 9.03297C7.08354 8.84433 7.2906 8.67153 7.47742 8.51532C7.89257 8.2146 8.23819 7.98341 8.46418 7.82332C8.69356 7.66426 8.81577 7.57889 8.81577 7.57889L7.86792 6.27713Z" fill="#F0E33F"/>
</svg>
