<svg width="359" height="493" viewBox="0 0 359 493" fill="none" xmlns="http://www.w3.org/2000/svg">
<path d="M358.956 246.499C359.65 224.618 351.589 203.176 336.071 185.623C339.098 163.885 333.355 141.921 319.767 123.268C307.403 104.026 287.733 88.8383 263.908 80.1372C253.597 60.0365 235.573 43.4369 212.728 33.0013C190.594 21.5505 164.531 16.7106 138.737 19.261C117.898 6.20571 92.456 -0.565159 66.5 0.0369528C40.5354 -0.547417 15.0922 6.24538 -5.73668 19.3226C-31.5315 16.7722 -57.5943 21.6121 -79.7281 33.0629C-102.561 43.4828 -120.583 60.0594 -130.908 80.1372C-154.76 88.8268 -174.457 104.016 -186.84 123.268C-200.428 141.921 -206.171 163.885 -203.145 185.623C-218.636 203.184 -226.671 224.625 -225.956 246.499C-226.65 268.381 -218.589 289.822 -203.071 307.376C-206.098 329.114 -200.355 351.078 -186.767 369.731C-174.389 388.964 -154.723 404.148 -130.908 412.862C-120.593 432.945 -102.568 449.524 -79.7281 459.936C-61.5464 469.228 -40.7443 474.249 -19.4821 474.477C-14.8619 474.48 -10.2462 474.233 -5.66356 473.738C15.1418 486.801 40.5648 493.574 66.5 492.962C92.4438 493.556 117.868 486.762 138.664 473.676C143.246 474.172 147.862 474.419 152.482 474.416C173.738 474.206 194.539 469.207 212.728 459.936C235.568 449.524 253.593 432.945 263.908 412.862C287.75 404.16 307.444 388.974 319.84 369.731C333.428 351.078 339.171 329.114 336.145 307.376C351.636 289.814 359.671 268.373 358.956 246.499ZM352.888 246.499C353.466 265.662 347.145 284.522 334.755 300.598C329.28 280.595 318.086 262.023 302.147 246.499C317.934 231.119 329.071 212.749 334.609 192.955C347.036 208.816 353.414 227.498 352.888 246.499ZM266.54 357.408C269.114 374.884 266.605 392.626 259.229 409.103C239.699 415.307 218.673 417.421 197.959 415.265C193.938 415.265 189.99 414.464 186.115 413.971C192.618 398.214 196.649 381.809 198.105 365.171V364.124L113.659 286.241L206.075 357.408H207.318C226.973 356.244 246.365 352.93 265.005 347.549C265.59 350.691 266.174 354.019 266.54 357.408ZM137.128 468.316C116.556 465.465 97.0983 458.492 80.3917 447.982C77.1747 445.949 74.0307 443.916 71.0331 441.821C85.8207 430.95 98.8929 418.525 109.93 404.852L110.588 403.989L83.7549 300.721L121.628 401.278L122.725 401.771C140.444 409.016 159.192 414.317 178.511 417.544C177.122 420.625 175.659 423.706 173.978 426.848C165.793 442.949 153.158 457.166 137.128 468.316ZM-40.9776 426.848C-42.6593 423.706 -44.1215 420.687 -45.5107 417.544C-26.192 414.317 -7.44385 409.016 10.2753 401.771L11.372 401.278L49.2451 300.721L22.6316 403.804L23.2896 404.667C34.3264 418.34 47.3986 430.765 62.1863 441.636C59.1886 443.731 56.0447 445.764 52.8277 447.798C36.0786 458.4 16.5399 465.439 -4.12816 468.316C-20.1583 457.166 -32.7927 442.949 -40.9776 426.848ZM-133.54 357.408C-133.174 354.019 -132.59 350.691 -132.005 347.426C-113.371 352.849 -93.9792 356.204 -74.3176 357.408H-73.0747L19.4146 286.18L-65.1053 364.185V365.233C-63.7195 381.77 -59.8123 398.089 -53.4801 413.786C-57.2821 414.279 -61.2302 414.772 -65.1784 415.08C-85.9163 417.249 -106.969 415.134 -126.521 408.918C-133.766 392.478 -136.174 374.803 -133.54 357.408ZM-133.54 135.591C-136.114 118.115 -133.605 100.373 -126.229 83.8958C-111.936 79.2565 -96.7247 76.9562 -81.4097 77.1181C-75.9147 77.1251 -70.4238 77.3719 -64.959 77.8575C-60.9378 78.1655 -56.9896 78.6585 -53.1146 79.1514C-59.6058 94.8685 -63.6367 111.232 -65.1053 127.828V128.875L19.3414 206.757L-73.0747 135.591H-74.3176C-93.9727 136.755 -113.365 140.069 -132.005 145.45C-132.59 142.307 -133.174 138.98 -133.54 135.591ZM-4.12816 24.6832C16.4435 27.5334 35.9017 34.5068 52.6083 45.0163C55.8253 47.0497 58.9693 49.083 61.9669 51.1779C47.1792 62.049 34.1071 74.4734 23.0703 88.1473L22.4122 89.0099L49.2451 192.278L11.372 91.721L10.2753 91.2281C-7.44385 83.9829 -26.192 78.6819 -45.5107 75.4545C-44.1215 72.3737 -42.6593 69.2929 -40.9776 66.1505C-32.7927 50.0501 -20.1583 35.8324 -4.12816 24.6832ZM173.978 66.1505C175.659 69.2929 177.122 72.3121 178.511 75.4545C159.192 78.6819 140.444 83.9829 122.725 91.2281L121.628 91.721L83.7549 192.278L110.368 89.1947L109.71 88.3321C98.6736 74.6583 85.6014 62.2338 70.8137 51.3628C73.8114 49.2678 76.8822 47.2345 80.1723 45.2012C96.9214 34.5986 116.46 27.5599 137.128 24.6832C153.158 35.8324 165.793 50.0501 173.978 66.1505ZM266.54 135.591C266.54 138.98 265.59 142.307 265.005 145.573C246.371 140.15 226.979 136.794 207.318 135.591H206.075L113.585 206.819L198.105 128.814V127.766C196.72 111.228 192.812 94.9097 186.48 79.213C190.282 78.7201 194.23 78.2272 198.178 77.9191C218.916 75.7498 239.969 77.8644 259.521 84.0806C266.769 100.52 269.177 118.195 266.54 135.591ZM254.184 209.9L253.16 209.53L130.84 231.958L249.285 200.349H250.455L251.04 199.425C259.584 184.56 265.873 168.848 269.757 152.659C293.077 159.535 313.781 171.557 329.711 187.472C326.186 204.622 317.92 220.833 305.583 234.792C303.17 237.565 300.757 240.153 298.271 242.679C285.304 230.205 270.486 219.188 254.184 209.9ZM294.323 246.869C281.809 258.815 267.59 269.411 251.99 278.416L80.6841 246.499L251.99 214.829C267.616 223.853 281.838 234.493 294.323 246.499V246.869ZM245.922 196.036L78.7831 240.338L208.341 140.89C227.272 142.171 245.939 145.442 263.908 150.625C260.173 166.254 254.13 181.427 245.922 195.79V196.036ZM191.817 126.965L73.8114 236.148L126.892 95.2947C143.936 88.3772 161.94 83.2852 180.485 80.1372C186.546 95.2915 190.352 111.021 191.817 126.965ZM104.081 89.9958L66.5 234.546L28.9194 90.1806C39.653 76.9915 52.275 64.968 66.5 54.3819C80.7425 64.9531 93.3666 76.9786 104.081 90.1806V89.9958ZM6.32715 95.1098L59.1886 236.148L-58.8175 126.965C-57.3524 111.021 -53.5458 95.2915 -47.4848 80.1372C-28.8649 83.2703 -10.786 88.3626 6.32715 95.2947V95.1098ZM-75.3412 140.89L54.2168 240.338L-112.922 195.79C-121.148 181.368 -127.19 166.132 -130.908 150.441C-112.926 145.333 -94.2608 142.125 -75.3412 140.89ZM-117.747 199.117L-117.162 200.041L2.08652 231.958L-120.16 209.53L-121.184 210.085C-137.395 219.353 -152.137 230.327 -165.052 242.741C-181.444 226.793 -192.387 207.391 -196.711 186.609C-183.462 173.203 -166.622 162.643 -147.578 155.801C-143.849 154.384 -140.267 153.152 -136.538 151.981C-132.697 168.307 -126.382 184.148 -117.747 199.117ZM-118.99 214.829L52.3159 246.499L-118.99 278.17C-134.616 269.145 -148.838 258.506 -161.323 246.499C-148.818 234.51 -134.599 223.872 -118.99 214.829ZM-121.184 283.099L-120.16 283.654L2.15965 261.041L-116.285 292.65H-117.455L-118.04 293.574C-126.584 308.438 -132.873 324.151 -136.757 340.34C-160.077 333.464 -180.781 321.442 -196.711 305.527C-193.186 288.377 -184.92 272.166 -172.583 258.206C-170.17 255.434 -167.757 252.846 -165.272 250.32C-152.304 262.794 -137.486 273.811 -121.184 283.099ZM-112.922 297.209L54.2168 252.661L-75.3412 352.109C-94.2725 350.827 -112.939 347.557 -130.908 342.373C-127.173 326.745 -121.13 311.572 -112.922 297.209ZM-58.8175 366.034L59.1886 256.851L6.32715 397.704C-10.786 404.636 -28.8649 409.729 -47.4848 412.862C-53.5458 397.707 -57.3524 381.978 -58.8175 366.034ZM28.9194 403.003L66.5 258.453L104.081 402.818C93.347 416.007 80.725 428.031 66.5 438.617C52.2574 428.046 39.6334 416.02 28.9194 402.818V403.003ZM126.673 397.889L73.8114 256.851L191.817 366.034C190.352 381.978 186.546 397.707 180.485 412.862C161.865 409.729 143.786 404.636 126.673 397.704V397.889ZM208.341 352.293L78.7831 252.661L245.922 297.394C254.13 311.757 260.173 326.93 263.908 342.558C245.926 347.666 227.261 350.874 208.341 352.109V352.293ZM250.747 294.067L250.162 293.142L130.913 261.041L253.16 283.469L254.184 282.914C270.395 273.645 285.137 262.671 298.052 250.258C314.444 266.206 325.387 285.608 329.711 306.39C316.462 319.796 299.622 330.356 280.578 337.198C276.849 338.615 273.266 339.847 269.538 341.018C265.697 324.692 259.382 308.85 250.747 293.882V294.067ZM314.503 126.041C326.353 142.39 332.062 161.377 330.88 180.509C314.298 165.478 293.583 154.115 270.561 147.421C275.141 127.267 273.811 106.476 266.686 86.8533C286.935 95.4846 303.606 109.083 314.503 125.856V126.041ZM209.657 37.4992C229.642 46.653 245.858 60.7051 256.158 77.7959C232.874 71.7916 208.202 70.6706 184.287 74.5302C176.371 55.1179 162.883 37.6556 145.024 23.6973C167.727 22.7012 190.257 27.5123 209.657 37.4992ZM66.5 5.15105C89.2383 4.6634 111.619 9.99081 130.694 20.4317C106.958 25.0461 84.9207 34.48 66.5 47.9123C48.0793 34.48 26.0417 25.0461 2.30588 20.4317C21.3813 9.99081 43.7617 4.6634 66.5 5.15105ZM-76.6573 37.4992C-57.257 27.5123 -34.7272 22.7012 -12.0245 23.6973C-29.8833 37.6556 -43.3708 55.1179 -51.2867 74.5302C-75.2019 70.6706 -99.8737 71.7916 -123.158 77.7959C-112.858 60.7051 -96.6422 46.653 -76.6573 37.4992ZM-181.503 125.856C-170.641 109.014 -153.966 95.3487 -133.686 86.6685C-140.811 106.291 -142.141 127.083 -137.561 147.237C-160.364 153.914 -180.926 165.114 -197.515 179.893C-198.789 160.93 -193.206 142.088 -181.503 125.856ZM-219.888 246.499C-220.466 227.337 -214.145 208.476 -201.755 192.401C-196.28 212.404 -185.085 230.976 -169.147 246.499C-184.934 261.88 -196.071 280.25 -201.609 300.043C-214.036 284.183 -220.414 265.5 -219.888 246.499ZM-181.503 367.143C-193.353 350.793 -199.062 331.807 -197.88 312.675C-181.298 327.705 -160.583 339.068 -137.561 345.762C-142.141 365.916 -140.811 386.708 -133.686 406.33C-153.966 397.65 -170.641 383.985 -181.503 367.143ZM-76.6573 455.5C-96.6202 446.35 -112.831 432.323 -123.158 415.265C-109.627 418.948 -95.4824 420.778 -81.2635 420.687C-71.2394 420.656 -61.2361 419.914 -51.3598 418.469C-43.3714 437.866 -29.866 455.319 -12.0245 469.301C-34.7272 470.298 -57.257 465.486 -76.6573 455.5ZM66.5 487.848C43.783 488.346 21.4221 483.017 2.37898 472.567C26.0869 467.939 48.0969 458.506 66.5 445.087C84.903 458.506 106.913 467.939 130.621 472.567C111.578 483.017 89.217 488.346 66.5 487.848ZM209.657 455.5C190.257 465.486 167.727 470.298 145.024 469.301C162.866 455.319 176.371 437.866 184.36 418.469C194.236 419.914 204.239 420.656 214.263 420.687C228.482 420.778 242.627 418.948 256.158 415.265C245.831 432.323 229.62 446.35 209.657 455.5ZM314.503 367.143C303.641 383.985 286.966 397.65 266.686 406.33C273.811 386.708 275.141 365.916 270.561 345.762C293.364 339.085 313.926 327.885 330.515 313.106C331.789 332.069 326.206 350.911 314.503 367.143Z" fill="#F0E33F" fill-opacity="0.02"/>
</svg>
