<svg width="25" height="23" viewBox="0 0 25 23" fill="none" xmlns="http://www.w3.org/2000/svg">
<path d="M17.7734 0C16.7847 0.00120911 15.8067 0.215406 14.8997 0.629378C13.9927 1.04335 13.1761 1.64832 12.5 2.40697C11.5093 1.29513 10.2235 0.522132 8.80974 0.188336C7.39594 -0.14546 5.91936 -0.0246391 4.57168 0.535114C3.224 1.09487 2.06748 2.0677 1.25224 3.32732C0.437007 4.58694 0.000713398 6.07517 0 7.59881C0 15.1648 11.6055 22.5911 12.1094 22.8827C12.2309 22.9594 12.37 23 12.5117 23C12.6535 23 12.7926 22.9594 12.9141 22.8827C13.3945 22.5911 25 15.1648 25 7.59881C24.9979 5.58415 24.2359 3.65262 22.8811 2.22804C21.5263 0.803459 19.6894 0.00217449 17.7734 0ZM12.5 21.2109C10.4805 19.8555 1.5625 13.5218 1.5625 7.59881C1.5635 6.33369 1.9476 5.10177 2.65912 4.08158C3.37064 3.0614 4.37263 2.30597 5.51986 1.92476C6.66708 1.54355 7.89995 1.55637 9.03978 1.96137C10.1796 2.36637 11.1672 3.14251 11.8594 4.17729C11.9315 4.28493 12.0272 4.37276 12.1383 4.43339C12.2495 4.49401 12.3728 4.52566 12.498 4.52566C12.6233 4.52566 12.7466 4.49401 12.8578 4.43339C12.9689 4.37276 13.0646 4.28493 13.1367 4.17729C13.8283 3.14073 14.8161 2.36292 15.9567 1.95678C17.0973 1.55064 18.3313 1.53731 19.4796 1.91872C20.6278 2.30013 21.6306 3.05643 22.3423 4.07784C23.0541 5.09924 23.4377 6.33258 23.4375 7.59881C23.4375 13.5177 14.5195 19.8514 12.5 21.2109Z" fill="#FEFEFE"/>
<path d="M12.5 21.2109C10.4805 19.8555 1.5625 13.5218 1.5625 7.59881C1.5635 6.33369 1.9476 5.10177 2.65912 4.08158C3.37064 3.0614 4.37263 2.30597 5.51986 1.92476C6.66708 1.54355 7.89995 1.55637 9.03978 1.96137C10.1796 2.36637 11.1672 3.14251 11.8594 4.17729C11.9315 4.28493 12.0272 4.37276 12.1383 4.43339C12.2495 4.49401 12.3728 4.52566 12.498 4.52566C12.6233 4.52566 12.7466 4.49401 12.8578 4.43339C12.9689 4.37276 13.0646 4.28493 13.1367 4.17729C13.8283 3.14073 14.8161 2.36292 15.9567 1.95678C17.0973 1.55064 18.3313 1.53731 19.4796 1.91872C20.6278 2.30013 21.6306 3.05643 22.3423 4.07784C23.0541 5.09924 23.4377 6.33258 23.4375 7.59881C23.4375 13.5177 14.5195 19.8514 12.5 21.2109Z" fill="#FEFEFE"/>
</svg>
